<?xml version="1.0" encoding="utf-8"?>
<!-- Generator: Adobe Illustrator 27.3.1, SVG Export Plug-In . SVG Version: 6.00 Build 0)  -->
<svg version="1.1" id="Layer_1" xmlns="http://www.w3.org/2000/svg" xmlns:xlink="http://www.w3.org/1999/xlink" x="0px" y="0px"
	 viewBox="0 0 32 32" style="enable-background:new 0 0 32 32;" xml:space="preserve">
<path id="path5544-8" d="M16.82,2.35c-0.39-0.91-1.37-1.2-2.27-1.29c-2.21-0.22-4.03,0.88-4.77,2.98C9.55,4.69,9.4,5.39,9.27,6.07
	C9.24,6.22,9.1,6.63,9.27,6.72c0.2,0.11,0.33-0.24,0.39-0.37c0.25-0.53,0.38-1.11,0.59-1.65c0.21-0.55,0.44-1.1,0.8-1.57
	C11.94,2,13.39,1.46,14.8,1.65c0.44,0.06,0.89,0.2,1.28,0.39C16.31,2.16,16.56,2.39,16.82,2.35 M17.16,2.72
	C17.22,3,17.42,3.24,17.4,3.54c-0.05,0.67-0.62,1.21-1.11,1.6c-0.45,0.37-0.98,0.74-1.53,0.94c-1.05,0.38-2.15,0.38-3.23,0.64
	c-0.71,0.17-1.38,0.49-1.94,0.97c-0.2,0.17-0.52,0.39-0.45,0.69l2.48-0.87l2.36-0.34l1.41-0.56c0.03,0.13,0.06,0.26,0.12,0.37
	c0.3,0.53,1,0.14,0.54-0.32c-0.1-0.1-0.2-0.16-0.33-0.21V6.36c0.67-0.33,1.41-1.06,1.74-1.74h0.04c0,1.14-0.45,1.76-1.05,2.69
	c-0.06,0.1-0.42,0.74-0.14,0.79c0.23,0.04,0.47-0.55,0.56-0.71c0.37-0.66,0.87-1.23,0.87-2.03c0-0.24,0.02-0.65-0.25-0.74
	C17.76,3.96,17.81,3.19,17.16,2.72 M17.86,3.71c0.19,0.6,0.35,1.19,0.35,1.82c0,1.79-0.84,3.45-1,5.21c-0.11,1.2,0.4,2.34,0.7,3.47
	c0.27-0.08,0.25-0.46,0.25-0.7c-0.01-0.68-0.17-1.39-0.12-2.07c0.11-1.65,0.9-3.17,0.9-4.84c0-1.08-0.41-2-0.91-2.94L17.86,3.71
	 M15.58,8.88c-0.3,0.05-0.64,0.31-0.95,0.2c-0.25-0.09-0.36-0.34-0.55-0.51c-0.3-0.26-0.78-0.23-1.1-0.02
	c-0.73,0.47-0.73,1.6-0.16,2.19c0.22,0.22,0.91,0.63,1.22,0.35c0.19-0.18-0.15-0.43-0.27-0.53c-0.4-0.33-1.12-1.02-0.41-1.48
	c0.34-0.22,0.67,0.19,0.95,0.33C14.76,9.63,15.38,9.32,15.58,8.88 M9.22,20.7c-0.01,1.37-0.86,2.61-0.99,3.97
	c-0.13,1.37,0.4,2.34,0.99,3.51C9.02,28.23,8.28,28.5,8.5,28.8c0.23,0.31,0.88-0.26,1.21-0.08c0.42,0.22,0.8,0.51,1.24,0.7
	c1.34,0.57,2.82,0.66,4.22,0.28c0.44-0.12,0.88-0.31,1.28-0.52c0.13-0.07,0.35-0.16,0.38-0.32c0.05-0.19-0.18-0.2-0.3-0.16
	c-0.49,0.13-0.95,0.28-1.45,0.34c-1.5,0.19-3.11-0.18-4.38-0.98c-0.51-0.32-0.99-0.66-1.3-1.19c-0.55-0.93-0.67-2.07-0.36-3.1
	c0.3-0.99,0.93-1.99,0.63-3.06c1.72-0.04,3.67-0.42,5.25-1.13c0.43-0.19,0.84-0.42,1.2-0.72c0.41-0.34,0.7-0.74,1.28-0.75
	c0.53-0.01,0.94,0.51,1.22,0.9c0.73,1.02,1.08,2.39,0.65,3.6c-0.46,1.28-1.86,2.39-3.07,2.91c-0.2,0.09-1.24,0.34-1,0.67
	c0.17,0.24,0.88,0.06,1.12,0c1.16-0.25,2.24-0.88,2.99-1.81c0.99-1.24,1.32-2.88,0.6-4.34c-0.3-0.59-0.74-0.98-1.12-1.5
	c-0.13-0.18-0.16-0.39-0.32-0.56c-0.8-0.83-1.68-0.16-2.43,0.27c-0.52,0.3-1.06,0.56-1.61,0.78C12.26,19.9,9.99,20,7.69,20
	c-0.53,0-1.05-0.04-1.57-0.04c-0.22,0-0.49,0.04-0.63-0.17c-0.16-0.24,0-0.77,0.05-1.03c0.17-1,0.46-1.99,0.68-2.98
	c0.25-1.11,0.56-2.23,0.92-3.31c0.22-0.66,0.45-1.47,0.93-1.98c0.55-0.6,1.39-0.95,1.86-1.61C9.08,9,8.15,9.37,7.57,9.99
	c-0.55,0.6-0.88,1.47-1.13,2.23c-0.5,1.49-0.82,3.05-1.16,4.59c-0.19,0.85-0.52,1.65-0.52,2.52c0,0.29,0,0.71,0.18,0.95
	c0.29,0.37,0.87,0.41,1.31,0.42C7.23,20.72,8.22,20.71,9.22,20.7 M10.83,10.99c0.03,0.38,0.19,0.74,0.24,1.12
	c0.12,1-0.34,2.58-1.56,2.61c0.28-0.65,0.81-1.3,0.87-2.03c-0.41,0.12-0.73,0.86-0.97,1.2c-0.55,0.78-1.07,1.58-1.5,2.44
	c-0.13,0.26-0.3,0.51-0.38,0.79c-0.05,0.17,0,0.42-0.09,0.57c-0.09,0.15-0.29,0.22-0.41,0.34c0.82,0.09,1.66-0.09,2.48-0.04
	c1.31,0.09,2.63,0.5,3.93,0.16c0.53-0.14,1.03-0.36,1.49-0.67c0.12-0.08,0.4-0.22,0.37-0.39c-0.03-0.18-0.27-0.08-0.37-0.05
	c-0.42,0.14-0.84,0.27-1.28,0.34c-1.82,0.31-3.57-0.29-5.38-0.05l0.91-2.11c0.73,0.27,1.51-0.27,1.89-0.87
	c0.64-1,0.42-2.38-0.16-3.35L10.83,10.99 M11.49,11.24c0.35,0.97,1.41,1.79,2.4,2.05c0.48,0.12,1.65,0.01,1.24-0.76
	c-0.03-0.06-0.08-0.14-0.16-0.13c-0.1,0.02-0.17,0.2-0.26,0.26c-0.19,0.12-0.45,0.07-0.66,0.03c-0.64-0.12-1.26-0.39-1.78-0.78
	C12.01,11.7,11.79,11.38,11.49,11.24 M14.34,11.44c0.14,0.27,0.47,0.44,0.7,0.63c0.65,0.55,1.48,1.2,1.6,2.1
	c0.08,0.59-0.23,1-0.5,1.49c-0.07,0.14-0.2,0.38-0.02,0.49c0.26,0.15,0.69-0.13,0.84-0.32c0.4-0.51,0.38-1.34,0.23-1.94
	C16.88,12.57,15.48,11.93,14.34,11.44 M15.14,15.29c-0.2,0.1-0.32,0.63-0.51,0.81c-0.37,0.35-0.84,0.43-1.32,0.5
	c-0.18,0.03-0.56,0.03-0.65,0.22c-0.12,0.25,0.29,0.31,0.44,0.32c0.49,0.03,0.98-0.05,1.41-0.29c0.37-0.21,0.65-0.58,0.75-0.99
	C15.29,15.77,15.39,15.18,15.14,15.29 M15.87,16.57v0.04l1.36,0.17v0.04l-0.91,0.37c0.25,0.1,0.61-0.04,0.87-0.07
	c0.21-0.03,0.4,0.01,0.58,0.13c0.11,0.07,0.29,0.26,0.44,0.18c0.35-0.19-0.38-0.78-0.52-0.87C17.11,16.18,16.44,16.19,15.87,16.57
	 M16.25,27.86c0.89-0.13,1.85-0.84,2.48-1.45c0.26-0.25,0.64-0.95,0.99-1.03c0.63-0.15,1.62,0.2,2.23,0.36
	c1.07,0.27,3.69,0.54,3.11,2.21c-0.08,0.22-0.19,0.43-0.32,0.62c-0.17,0.26-0.37,0.49-0.61,0.7c-0.99,0.87-2.47,0.99-3.72,1.04
	c-2.59,0.11-5.15-0.25-7.73-0.25c-0.85,0-1.71-0.08-2.52-0.32c-0.39-0.11-0.73-0.35-1.12-0.46c-0.16-0.04-0.34,0.06-0.22,0.23
	c0.15,0.23,0.56,0.36,0.8,0.48c0.95,0.44,1.92,0.5,2.94,0.62c2.76,0.33,5.59,0.48,8.35,0.28c1.31-0.1,2.73-0.19,3.76-1.09
	c0.73-0.63,0.82-1.35,1.05-2.22c0.06-0.22,0.29-0.38,0.4-0.58c0.2-0.35,0.24-0.76,0.2-1.16c-0.08-0.71-0.62-1.24-1.19-1.6
	c-1.05-0.66-2.28-0.98-3.51-1.01c-0.11-0.69-1.08,0.01-1.32,0.25c-0.96,0.99-1.61,2.24-2.61,3.22c-0.29,0.28-0.61,0.53-0.95,0.76
	C16.56,27.57,16.32,27.65,16.25,27.86 M25.55,26.66h-0.04c-0.32-0.55-0.87-0.77-1.45-0.96c-1.23-0.41-2.7-0.9-4.01-0.9
	c0.24-0.51,0.77-1.24,1.36-1.34c0.38-0.06,0.97,0.27,1.32,0.41C23.93,24.32,26.07,25.02,25.55,26.66 M17.69,29.47
	c1.42,0.26,2.92,0.12,4.34-0.1c0.4-0.06,0.79,0.15,1.16,0.09c0.26-0.04,0.29-0.33,0.16-0.52c-0.23-0.36-0.76-0.29-1.11-0.26
	c-1.08,0.08-2.2,0.34-3.27,0.51C18.69,29.24,17.8,29.17,17.69,29.47"/>
</svg>
