<?xml version="1.0" encoding="utf-8"?>
<!-- Generator: Adobe Illustrator 27.3.1, SVG Export Plug-In . SVG Version: 6.00 Build 0)  -->
<svg version="1.1" id="Layer_1" xmlns="http://www.w3.org/2000/svg" xmlns:xlink="http://www.w3.org/1999/xlink" x="0px" y="0px"
	 viewBox="0 0 82 32" style="enable-background:new 0 0 82 32;" xml:space="preserve">
<style type="text/css">
	.st0{fill:#FBB9D3;}
</style>
<g>
	<path id="path5544-8" class="st0" d="M74.04,4.73c-0.3-0.71-1.06-0.93-1.76-1c-1.71-0.17-3.13,0.68-3.69,2.31
		c-0.18,0.5-0.3,1.05-0.4,1.57c-0.02,0.12-0.13,0.43,0,0.51c0.15,0.09,0.26-0.19,0.3-0.29c0.19-0.41,0.29-0.86,0.46-1.28
		c0.17-0.42,0.34-0.86,0.62-1.22c0.68-0.88,1.81-1.29,2.9-1.14c0.34,0.05,0.69,0.15,0.99,0.3C73.64,4.58,73.84,4.77,74.04,4.73
		 M74.3,5.02c0.05,0.22,0.21,0.4,0.19,0.64C74.44,6.18,74,6.59,73.62,6.9c-0.35,0.28-0.76,0.57-1.19,0.73
		c-0.81,0.3-1.67,0.3-2.5,0.49c-0.55,0.13-1.07,0.38-1.51,0.75c-0.16,0.14-0.4,0.31-0.35,0.53L70,8.73l1.83-0.27l1.09-0.43
		c0.02,0.1,0.04,0.2,0.09,0.29c0.23,0.41,0.77,0.11,0.42-0.25c-0.07-0.07-0.16-0.13-0.25-0.17V7.84c0.52-0.26,1.09-0.82,1.35-1.35
		h0.03c0,0.88-0.35,1.36-0.81,2.08c-0.05,0.08-0.33,0.58-0.11,0.61c0.18,0.03,0.37-0.42,0.43-0.55c0.29-0.51,0.68-0.95,0.68-1.57
		c0-0.18,0.01-0.51-0.19-0.58C74.76,5.98,74.8,5.38,74.3,5.02 M74.84,5.79c0.15,0.46,0.27,0.92,0.27,1.41
		c0,1.39-0.65,2.67-0.78,4.04c-0.09,0.93,0.31,1.81,0.54,2.69c0.21-0.06,0.19-0.36,0.19-0.54c-0.01-0.53-0.13-1.07-0.09-1.6
		c0.09-1.28,0.7-2.45,0.7-3.75c0-0.84-0.32-1.55-0.7-2.27L74.84,5.79 M73.08,9.79c-0.23,0.04-0.49,0.24-0.74,0.15
		c-0.2-0.07-0.28-0.27-0.43-0.39c-0.23-0.2-0.61-0.18-0.86-0.02c-0.57,0.37-0.57,1.24-0.13,1.7c0.17,0.17,0.71,0.49,0.95,0.27
		c0.15-0.14-0.12-0.33-0.21-0.41c-0.31-0.25-0.86-0.79-0.32-1.15c0.26-0.17,0.52,0.15,0.74,0.25C72.44,10.37,72.92,10.13,73.08,9.79
		 M68.15,18.95c-0.01,1.07-0.66,2.02-0.76,3.08c-0.1,1.07,0.31,1.81,0.76,2.72c-0.15,0.04-0.72,0.24-0.55,0.47
		c0.18,0.24,0.68-0.2,0.94-0.07c0.33,0.17,0.62,0.39,0.96,0.54c1.04,0.44,2.18,0.51,3.27,0.22c0.34-0.09,0.68-0.24,0.99-0.41
		c0.1-0.05,0.27-0.13,0.3-0.25c0.04-0.15-0.14-0.15-0.23-0.13c-0.38,0.1-0.73,0.21-1.12,0.26c-1.16,0.15-2.41-0.14-3.4-0.76
		c-0.4-0.25-0.77-0.51-1.01-0.92c-0.43-0.72-0.52-1.6-0.28-2.4c0.23-0.77,0.72-1.54,0.49-2.37c1.34-0.03,2.85-0.32,4.07-0.87
		c0.33-0.15,0.65-0.32,0.93-0.55c0.32-0.26,0.54-0.57,0.99-0.58c0.41-0.01,0.73,0.4,0.95,0.7c0.57,0.79,0.84,1.85,0.5,2.79
		c-0.36,0.99-1.44,1.85-2.38,2.26c-0.16,0.07-0.96,0.26-0.77,0.52c0.14,0.19,0.68,0.04,0.87,0c0.9-0.19,1.73-0.68,2.31-1.4
		c0.77-0.96,1.03-2.23,0.46-3.36c-0.23-0.46-0.57-0.76-0.87-1.16c-0.1-0.14-0.12-0.3-0.25-0.44c-0.62-0.64-1.3-0.13-1.88,0.21
		c-0.4,0.23-0.82,0.44-1.25,0.61c-1.68,0.67-3.44,0.75-5.22,0.75c-0.41,0-0.81-0.03-1.22-0.03c-0.17,0-0.38,0.03-0.49-0.13
		c-0.12-0.18,0-0.59,0.04-0.8c0.13-0.77,0.36-1.54,0.53-2.31c0.19-0.86,0.43-1.72,0.71-2.56c0.17-0.51,0.35-1.14,0.72-1.54
		c0.43-0.47,1.07-0.73,1.44-1.25c-0.65,0.1-1.37,0.38-1.82,0.86c-0.43,0.46-0.68,1.14-0.88,1.73c-0.39,1.16-0.64,2.36-0.9,3.56
		c-0.15,0.66-0.4,1.28-0.4,1.95c0,0.23,0,0.55,0.14,0.74c0.22,0.29,0.67,0.32,1.01,0.32C66.61,18.96,67.38,18.95,68.15,18.95
		 M69.4,11.42c0.03,0.29,0.15,0.57,0.18,0.86c0.09,0.77-0.26,2-1.21,2.02c0.22-0.5,0.62-1.01,0.67-1.57
		c-0.32,0.09-0.57,0.67-0.75,0.93c-0.43,0.6-0.83,1.23-1.16,1.89c-0.1,0.2-0.23,0.39-0.29,0.61c-0.04,0.13,0,0.32-0.07,0.44
		c-0.07,0.12-0.23,0.17-0.32,0.26c0.64,0.07,1.28-0.07,1.92-0.03c1.01,0.07,2.03,0.39,3.04,0.12c0.41-0.11,0.8-0.28,1.15-0.52
		c0.09-0.06,0.31-0.17,0.29-0.3c-0.02-0.14-0.21-0.06-0.29-0.04c-0.33,0.11-0.65,0.21-0.99,0.26c-1.41,0.24-2.77-0.23-4.16-0.04
		l0.7-1.63c0.56,0.21,1.17-0.21,1.47-0.67c0.5-0.78,0.32-1.84-0.12-2.59L69.4,11.42 M69.91,11.62c0.27,0.75,1.1,1.39,1.86,1.59
		c0.37,0.1,1.28,0.01,0.96-0.59c-0.02-0.05-0.06-0.11-0.12-0.1c-0.08,0.01-0.13,0.16-0.2,0.2c-0.14,0.1-0.35,0.05-0.51,0.02
		c-0.49-0.09-0.98-0.3-1.38-0.6C70.31,11.98,70.14,11.73,69.91,11.62 M72.12,11.78c0.11,0.21,0.37,0.34,0.54,0.49
		c0.5,0.42,1.15,0.93,1.24,1.62c0.06,0.46-0.18,0.78-0.39,1.15c-0.06,0.11-0.16,0.29-0.01,0.38c0.2,0.12,0.53-0.1,0.65-0.25
		c0.31-0.39,0.29-1.04,0.18-1.5C74.08,12.65,73,12.16,72.12,11.78 M72.73,14.76c-0.16,0.07-0.25,0.49-0.39,0.63
		c-0.28,0.27-0.65,0.33-1.02,0.39c-0.14,0.02-0.43,0.02-0.5,0.17c-0.09,0.19,0.22,0.24,0.34,0.25c0.38,0.03,0.76-0.04,1.09-0.23
		c0.28-0.16,0.5-0.45,0.58-0.76C72.85,15.13,72.93,14.67,72.73,14.76 M73.3,15.75v0.03l1.06,0.13v0.03l-0.7,0.29
		c0.19,0.07,0.47-0.03,0.67-0.05c0.16-0.02,0.31,0,0.45,0.1c0.09,0.06,0.22,0.2,0.34,0.14c0.27-0.15-0.29-0.6-0.4-0.67
		C74.26,15.45,73.75,15.46,73.3,15.75 M73.59,24.49c0.69-0.1,1.44-0.65,1.92-1.12c0.2-0.2,0.49-0.73,0.77-0.8
		c0.49-0.12,1.25,0.16,1.73,0.28c0.83,0.21,2.86,0.42,2.41,1.71c-0.06,0.17-0.14,0.33-0.25,0.48c-0.13,0.2-0.29,0.38-0.47,0.54
		c-0.77,0.67-1.91,0.76-2.88,0.81c-2.01,0.09-3.99-0.19-5.99-0.19c-0.65,0-1.32-0.06-1.95-0.25c-0.3-0.09-0.57-0.27-0.86-0.36
		c-0.12-0.03-0.26,0.04-0.17,0.18c0.12,0.17,0.44,0.28,0.62,0.37c0.73,0.34,1.49,0.39,2.27,0.48c2.14,0.26,4.33,0.38,6.47,0.22
		c1.02-0.07,2.11-0.15,2.91-0.84c0.56-0.49,0.63-1.05,0.81-1.72c0.05-0.17,0.22-0.3,0.31-0.45c0.15-0.27,0.19-0.59,0.16-0.9
		c-0.06-0.55-0.48-0.96-0.92-1.24c-0.81-0.51-1.76-0.76-2.72-0.78c-0.08-0.53-0.84,0.01-1.02,0.2c-0.74,0.77-1.25,1.74-2.02,2.49
		c-0.22,0.22-0.48,0.41-0.74,0.59C73.84,24.27,73.65,24.33,73.59,24.49 M80.8,23.56h-0.03c-0.25-0.43-0.68-0.6-1.12-0.75
		c-0.95-0.32-2.09-0.69-3.11-0.69c0.19-0.4,0.6-0.96,1.06-1.03c0.29-0.05,0.75,0.21,1.02,0.32C79.54,21.75,81.21,22.29,80.8,23.56
		 M74.71,25.74c1.1,0.2,2.26,0.09,3.36-0.08c0.31-0.05,0.61,0.12,0.9,0.07c0.2-0.03,0.22-0.25,0.13-0.4
		c-0.18-0.28-0.58-0.22-0.86-0.2c-0.83,0.06-1.7,0.26-2.53,0.4C75.48,25.56,74.8,25.51,74.71,25.74"/>
	<path id="path5544-6-1" class="st0" d="M20.13,2.49l0.06,0.1c-0.16,0.22-0.39,0.39-0.55,0.61C19.06,4,18.59,4.96,18.21,5.88
		l-0.1-0.03l-0.27,0.64L16.85,9.1l-0.8,2.65l-0.28,0.64l-0.56,2.53l-0.62,2.4h-0.03l-0.06-0.19c0.02,0.68-0.11,1.35-0.29,2.02
		l-0.1-0.03l-0.16,0.77l-0.13-0.03l-0.06,0.48l-1,0.87c0.2,0.1,0.61-0.03,0.74,0.17c0.07,0.1-0.03,0.26-0.04,0.37
		c-0.05,0.35-0.14,0.7-0.2,1.06c-0.25,1.46-0.71,2.88-0.91,4.36c-0.04,0.29-0.17,0.8-0.05,1.08c0.1,0.23,0.33,0.29,0.52,0.39
		c0.4,0.23,0.57,0.54,1.09,0.45l0.29-2.24h0.03l0.06,0.1l-0.06-0.1l0.16-0.42l-0.13,0.06l0.26-0.64l-0.16,0.1l0.45-2.34
		c0.27-0.03,0.5-0.34,0.61-0.58l-0.1-0.1c0.21-0.04,0.36-0.16,0.32-0.38c0.28-0.02,0.46-0.39,0.64-0.58c0.5-0.5,0.99-0.97,1.57-1.38
		c0.16-0.12,0.61-0.5,0.83-0.43c0.15,0.05,0.1,0.31,0.1,0.43c0,0.43-0.06,0.86-0.16,1.28c-0.3,1.19-0.95,2.28-1.75,3.2
		c-0.3,0.35-0.69,0.81-1.13,0.99c0-0.85,0.19-1.65,0.51-2.43c0.15-0.35,0.58-0.82,0.51-1.19c-0.23,0.18-0.4,0.47-0.56,0.7
		c-0.45,0.63-0.84,1.31-1.07,2.05c-0.09,0.29-0.23,0.72-0.16,1.02c0.05,0.23,0.33,0.41,0.51,0.53c0.3,0.2,0.79,0.42,1.15,0.31
		c0.27-0.08,0.51-0.29,0.74-0.45c0.15-0.1,0.33-0.18,0.45-0.31c0.75-0.82,1.18-1.76,1.68-2.72c0.45-0.87,1-2.03,0.65-3.04
		c-0.25-0.73-1.02-0.97-1.73-0.9c-1.35,0.13-2.28,1.1-3.2,2.02l-0.03-0.45l0.19-0.35l-0.1-0.03v-0.06l0.27-0.48l0.3-0.23l0.39-0.51
		c-0.08-0.33,0.22-0.22,0.35-0.45l-0.1-0.1c0.09,0,0.09-0.04,0.1-0.13l0.16,0.06l0.19-0.48l-0.13,0.03l0.27-0.2l0.5-0.82v-0.03
		c-0.11-0.19,0.09-0.32,0.19-0.48c0.09-0.15,0.08-0.33,0.16-0.47c0.13-0.23,0.35-0.3,0.29-0.61c0.31-0.1,0.23-0.52,0.35-0.74
		c0.17-0.3,0.36-0.57,0.48-0.9c0.07-0.21,0.06-0.47,0.15-0.67c0.05-0.11,0.17-0.16,0.24-0.26c0.1-0.16,0.15-0.37,0.19-0.54h-0.16
		c0.15-0.12,0.25-0.22,0.26-0.42h0.13c0-0.42,0.26-0.72,0.42-1.09l-0.13,0.03c0.06-0.18,0.23-0.32,0.16-0.51
		c0.18-0.08,0.33-0.57,0.29-0.77l0.1,0.03l0.16-0.58h-0.13v-0.1c0.26-0.03,0.24-0.34,0.31-0.54c0.17-0.54,0.53-1.23,0.42-1.79
		c0.23-0.1,0.13-0.4,0.19-0.61c0.18-0.66,0.29-1.33,0.29-2.02c0-0.15,0.07-0.77-0.1-0.8c0.17-0.47-0.54-1.01-0.96-1.09
		C20.85,2.19,20.33,2.43,20.13,2.49 M19.84,2.81l0.22-0.22L19.84,2.81 M42.42,13.18l-1.01,4l-0.56,2.75l-0.24,1.54l-0.35,0.61
		l0.17,0.86l-0.15,0.83l-0.01,0.8h0.03l0.03-0.22h0.03v0.61l-0.1-0.1h-0.03c0,0.55,0,1.08,0.03,1.63c0.01,0.16,0.11,0.44-0.03,0.54
		c0.21,0.33,0.24,0.75,0.36,1.12c0.25,0.77,0.75,1.4,1.6,1.51c-0.19-0.27-0.42-0.49-0.57-0.8c-0.51-1.1-0.4-2.24-0.39-3.4
		c0-0.91,0-1.94,0.28-2.82c0.32-0.98,0.93-1.83,1.38-2.75c0.43-0.89,0.7-1.87,1.05-2.79c0.38-1.02,0.7-2.05,1.04-3.08
		c0.11-0.32,0.09-0.9,0.37-1.13c0.15-0.13,0.66-0.08,0.85-0.08h2.31l-0.16,0.7l-0.13,0.06l0.1-0.03l-0.03,0.22l-0.1-0.06l-0.03,0.13
		l0.1-0.03l-0.22,0.61l0.1-0.03l-0.38,1.15l0.1-0.03l-0.32,1.04l-0.12,0.37c0.03,0.15,0.05,0.27-0.1,0.35l-0.29,1.57l-0.1-0.03
		c-0.11,0.38-0.11,0.8-0.18,1.19c-0.1,0.52-0.27,0.97-0.49,1.44l-0.13-0.03c-0.11,0.19-0.06,0.34-0.03,0.54l0.1-0.03
		c-0.11,0.84-0.45,1.69-0.69,2.5c-0.13,0.45-0.33,0.85-0.16,1.31c0.12,0.33,0.42,1.3,0.94,1.13c0.14-0.05,0.15-0.25,0.23-0.36
		c0.25-0.33,0.53-0.63,0.78-0.96c0.86-1.11,1.68-2.61,2.94-3.33c0.02,1.2,0.66,2.74,1.63,3.47c0.42,0.32,1.16,0.61,1.7,0.48
		c0.56-0.14,1.11-0.47,1.54-0.85c0.21-0.18,0.46-0.59,0.74-0.64c0.11-0.45,0.63-0.57,0.77-0.99h0.03l0.06,0.13h0.03l-0.03-0.29
		c0.2-0.04,0.33-0.13,0.42-0.32l0.38-0.54l-0.32,0.16l0.35-0.45l0.1,0.06l0.64-0.61l0.03,0.1c0.34-0.4,0.98-0.85,0.99-1.41
		c-0.57,0.32-1.08,0.76-1.6,1.16c-1.1,0.84-2.17,1.73-3.33,2.51c-0.64,0.43-1.41,1.17-2.21,0.73L52.1,25
		c-1.01-1.01-0.4-2.49-0.92-3.68c-0.06-0.15-0.18-0.1-0.28-0.18c-0.15-0.12-0.28-0.28-0.47-0.34c-0.33-0.11-0.91,0.23-1.18,0.4
		c-0.3,0.19-0.58,0.42-0.83,0.67c-0.39,0.39-0.76,0.8-1.15,1.19c0.04-0.22,0.07-0.41,0.26-0.54c-0.03-0.31,0.09-0.46,0.18-0.74
		c0.1-0.32,0.19-0.69,0.36-0.98c0.11-0.2,0.31-0.36,0.44-0.55c0.13-0.2,0.19-0.42,0.29-0.64c0.14-0.28,0.39-0.43,0.39-0.77
		l0.16-0.13l-0.13-0.06l0.16-0.03c0.18-0.4,0.41-0.83,0.62-1.22c0.19-0.36,0.39-0.56,0.34-0.99h0.03l0.1,0.06
		c0.07-0.43,0.55-0.81,0.48-1.28c0.23-0.09,0.49-0.73,0.61-0.96l-0.13-0.16c0.2,0.04,0.28-0.22,0.26-0.38h0.13
		c-0.06-0.39,0.4-0.55,0.16-0.93l0.54-0.06l-0.32-0.16l0.9,0.13v-0.03l-0.8-0.35l0.54-1.54l-0.13-0.03v-0.03l0.19,0.03
		c0.13-0.38,0.33-0.78,0.26-1.19l0.13,0.03l0.64-2.4l-0.1-0.03c0.17-0.24,0.2-0.45,0.24-0.74c0.09-0.64,0.16-1.56-0.26-2.11
		C53.68,4.08,53.46,4,53.28,3.89c-0.36-0.23-0.48-0.37-0.93-0.26c-0.86,0.21-1.13,1.19-1.44,1.9c-0.18,0.41-0.34,0.76-0.45,1.19
		l-0.1-0.03c0.05,0.15,0.01,0.3-0.13,0.38l-0.13,0.67l-0.1,0.03l-0.22,0.74h0.03l0.03-0.13h0.03l-0.53,1.51l-0.27,0.73l0.1,0.06
		l-0.26,0.61h0.03l0.03-0.1h0.03l-0.06,0.29h-0.03l-0.03-0.1h-0.03L48.8,11.9l-3.14-0.1c0.07-0.89,0.52-1.8,0.78-2.66
		c0.15-0.5,0.16-1.05,0.32-1.54c0.06-0.19,0.2-0.34,0.26-0.54c0.09-0.32,0.07-0.67,0.16-0.98c0.06-0.22,0.23-0.45,0.24-0.69
		c0.01-0.15-0.11-0.27-0.13-0.42c-0.07-0.71,0.37-1.54-0.37-2.09c-0.91-0.67-1.58,0.93-1.85,1.61c-0.65,1.63-1.08,3.4-1.56,5.09
		c-0.14,0.5-0.3,1-0.45,1.51c-0.06,0.2-0.1,0.53-0.23,0.69c-0.14,0.16-0.63,0.13-0.84,0.14c-0.57,0.04-1.13,0.12-1.69,0.21
		c-0.18,0.03-0.38-0.03-0.55,0.07c-0.21,0.13-0.3,0.47-0.28,0.7c0.02,0.47,0.36,0.58,0.79,0.58C40.98,13.5,41.68,13.18,42.42,13.18
		 M19.62,3.03l0.13-0.1L19.62,3.03 M20.29,2.98c0.02,0,0,0.02-0.01,0.01L20.29,2.98 M20.48,2.97v0.06h-0.1V2.97H20.48 M19.59,3.06
		c-0.16,0.14-0.37,0.22-0.42,0.45C19.34,3.43,19.59,3.27,19.59,3.06 M20.23,3.22l-0.03,0.03L20.23,3.22 M21,3.22
		c0.09,0.37-0.02,0.81-0.06,1.19c-0.12,1.09-0.41,2.16-0.74,3.2c-1.14,3.66-2.67,7.33-4.68,10.6c-0.04-0.3,0.12-0.7,0.19-0.99
		c0.16-0.75,0.32-1.5,0.49-2.24c0.67-2.92,1.5-5.74,2.71-8.49c0.38-0.86,0.87-1.7,1.42-2.47C20.5,3.77,20.71,3.36,21,3.22
		 M20.07,3.25l-0.16,0.22L20.07,3.25 M20.19,3.29c-0.2,0.48-0.55,0.89-0.81,1.35c-0.15,0.26-0.2,0.58-0.35,0.83
		c-0.23,0.39-0.4,0.63-0.48,1.09L18.4,6.52l0.03,0.38l-0.29-0.03l-0.47,1.22l-0.12,0.83l-0.27,0.86c-0.25,0.2-0.24,0.61-0.35,0.9
		H16.9l0.16-0.67c-0.16,0.2-0.48,0.87-0.38,1.12l0.13-0.38c0.14,0.09-0.1,0.63-0.16,0.8h-0.03l0.03-0.29h-0.03l-0.13,0.38l0.1-0.03
		l-0.03,0.58c-0.2,0.07-0.29,0.14-0.32,0.35l0.1-0.03c-0.02,0.13-0.07,0.15-0.19,0.16l-0.77,2.91h-0.03
		c0.13-0.99,0.47-1.98,0.72-2.95c0.56-2.19,1.21-4.44,2.22-6.47c0.34-0.69,0.69-1.37,1.11-2.02c0.13-0.2,0.29-0.57,0.53-0.64
		l-0.1,0.19L20.19,3.29 M21.57,3.51l0.06,0.13L21.57,3.51 M19.01,3.77l0.13-0.19C19.03,3.61,19.02,3.66,19.01,3.77 M46.52,3.86
		c-0.17,2.14-0.83,4.17-1.45,6.21c-0.12,0.41-0.25,0.81-0.36,1.22c-0.04,0.13-0.06,0.4-0.16,0.48c-0.14,0.11-0.49,0.08-0.65,0.03
		l0.26-0.93h-0.03v0.06h-0.03c0.02-0.08,0.02-0.08,0.1-0.06l0.34-1.22l1.01-3.4c-0.14-0.02,0.02-0.33,0.06-0.42h0.03L45.6,6.04h0.03
		c0.01-0.18-0.05-0.42,0.16-0.48l-0.06-0.1h0.1C45.94,4.96,46.17,4.24,46.52,3.86 M18.88,3.96l0.06,0.1L18.88,3.96 M19.59,3.96
		l0.06,0.06V3.96H19.59 M18.79,4.02v0.22V4.02 M19.59,4.06l-0.13,0.16l0.03,0.03L19.59,4.06 M19.87,4.18l-0.1-0.06L19.87,4.18
		 M46.99,4.14l-0.01,0.02L46.99,4.14 M47.44,4.19l0.02,0.01L47.44,4.19 M53.25,4.28c0.11,0.89,0,1.8-0.23,2.66
		c-0.17,0.65-0.45,1.34-0.51,2.02h0.03l0.06-0.06c-0.18,0.79-0.52,1.58-0.8,2.34c-0.09,0.24-0.19,0.7-0.41,0.83l0.67-1.92h-0.03
		l-0.6,1.41l-0.25,0.46L50.85,12l-0.93-0.07c0.11-0.38,0.16-0.77,0.27-1.15c0.18-0.63,0.49-1.24,0.7-1.86
		c0.05-0.14-0.02-0.27,0.03-0.42c0.28-0.81,0.65-1.61,0.99-2.4c0.2-0.47,0.4-0.87,0.68-1.28C52.78,4.56,52.91,4.33,53.25,4.28
		 M19.36,4.38L19.33,4.5L19.36,4.38 M47,4.44l0.06,0.06v0.03l-0.11,0.51l-0.19,0.99L45.85,9.4h0.03l0.29-0.86h0.03
		c-0.03,0.37-0.16,0.76-0.32,1.09l-0.03-0.1h-0.03l-0.13,0.48h0.03l0.06-0.26h0.03l-0.13,0.42l-0.06-0.03l-0.16,0.54
		c0.21,0.04,0.05,0.24-0.1,0.26l-0.1,0.77l-0.13-0.03c-0.07,0.13-0.15,0.15-0.29,0.16l0.89-3.01l0.46-1.76h0.19l0.19-1.22l0.13,0.03
		C46.75,5.45,46.77,4.81,47,4.44 M52,4.44V4.6h-0.06V4.44L52,4.44 M19.17,4.79l0.16-0.22C19.22,4.61,19.19,4.67,19.17,4.79
		 M21.54,4.73l-0.03,0.03L21.54,4.73 M47.36,4.79v0.1h0.03L47.36,4.79 M18.43,4.86v0.06h0.06V4.86H18.43 M19.14,4.86l-0.19,0.32
		C19.05,5.1,19.15,5,19.14,4.86 M51.59,4.86v0.06h-0.1V4.86H51.59 M45.95,4.95l-0.03,0.03L45.95,4.95 M21.35,4.98l-0.06,0.19h-0.03
		L21.35,4.98 M21.82,5.13l-0.01,0.02L21.82,5.13 M45.34,5.19c0.02,0,0,0.02-0.01,0.01L45.34,5.19 M47.36,5.24v0.1h-0.03L47.36,5.24
		 M46.75,5.3v0.06h-0.06L46.75,5.3 M18.85,5.34l-0.1,0.32h0.03l0.03-0.22l0.1-0.1H18.85 M19.2,5.34l-0.1,0.1L19.2,5.34 M21.22,5.4
		l-0.06,0.13L21.22,5.4 M46.68,5.56l-0.03,0.03L46.68,5.56 M51.13,5.58L51.12,5.6L51.13,5.58 M45.69,5.59l-0.03,0.19h0.03V5.59
		 M47.15,5.71l-0.01,0.02L47.15,5.71 M18.63,5.79l-0.1,0.19l0.16-0.19H18.63 M51.07,5.82l0.03,0.03l-0.1,0.06L51.07,5.82
		 M53.48,5.82l0.06,0.13L53.48,5.82 M47.1,5.85l-0.06,0.22L47.1,5.85 M20.93,5.91l-0.32,1.73h-0.13l-0.03,0.54l-0.1-0.03l-0.03,0.03
		l0.06,0.19l-0.13,0.03c0.12-0.62,0.34-1.21,0.47-1.83C20.77,6.38,20.74,6.03,20.93,5.91 M50.98,6.01v0.13h-0.06V6.01H50.98
		 M45.56,6.04v0.1h0.03L45.56,6.04 M18.47,6.14l-0.03,0.13l0.13,0.03l-0.03-0.16L18.47,6.14 M45.53,6.17v0.1h0.03L45.53,6.17
		 M50.94,6.2l-0.1,0.1l0.03-0.1H50.94 M51.17,6.3l-0.06,0.16L51.07,6.3H51.17 M46.55,6.34l0.02,0.01L46.55,6.34 M53.44,6.33
		l-0.03,0.03L53.44,6.33 M18.37,6.39c-0.07,0.1-0.19,0.26-0.06,0.35L18.37,6.39 M45.44,6.39l-0.06,0.16L45.44,6.39 M46.49,6.46
		l0.03,0.1L46.49,6.46 M44.89,6.52l-0.03,0.03L44.89,6.52 M50.94,6.62h-0.16v-0.1L50.94,6.62 M46.72,6.56l0.01,0.01
		C46.71,6.58,46.69,6.56,46.72,6.56 M53.48,6.59v0.03h-0.16V6.55L53.48,6.59 M45.4,6.62l-0.06,0.19h-0.03l0.03-0.19H45.4
		 M46.43,6.65l0.06,0.1L46.43,6.65 M44.83,6.68l-0.03,0.03L44.83,6.68 M44.6,6.75l-0.06,0.1L44.6,6.75 M17.53,6.79l0.02,0.01
		L17.53,6.79 M44.78,6.83l-0.01,0.02L44.78,6.83 M46.97,6.81v0.16h-0.03L46.97,6.81 M44.57,6.91l-0.06,0.16h-0.03l0.03-0.16H44.57
		 M45.28,6.91l-0.03,0.22h-0.03L45.28,6.91 M50.69,6.91l0.03,0.19l-0.1-0.06l-0.16,0.19L50.69,6.91 M17.31,7.03l0.13-0.1L17.31,7.03
		 M18.2,6.99l-0.01,0.02L18.2,6.99 M44.7,7.01c0.02,0,0,0.02-0.01,0.01L44.7,7.01 M18.14,7.1c0.07,0.15-0.11,0.41-0.19,0.54h-0.03
		L18.14,7.1 M44.67,7.16l-0.03,0.19H44.6V7.16H44.67 M46.59,7.16v0.06h-0.06V7.16H46.59 M44.47,7.19l-0.03,0.1h-0.03v-0.1H44.47
		 M46.3,7.19l0.03,0.03L46.3,7.19 M51.03,7.22l-0.01,0.02L51.03,7.22 M45.21,7.26l-0.03,0.1h-0.03v-0.1H45.21 M17.42,7.31l0.01,0.02
		L17.42,7.31 M46.56,7.32l-0.06,0.1L46.56,7.32 M50.5,7.32l-0.06,0.22H50.4l0.03-0.22H50.5 M17.38,7.39l0.03,0.03L17.38,7.39
		 M44.41,7.42l-0.03,0.13h-0.03V7.42H44.41 M17.31,7.48l0.06,0.06V7.48H17.31 M45.08,7.49c0.02,0,0,0.02-0.01,0.01L45.08,7.49
		 M46.17,7.58l0.1-0.1L46.17,7.58 M46.52,7.48v0.19L46.36,7.8l0.1-0.32H46.52 M44.54,7.51l-0.03,0.19h-0.03L44.54,7.51 M46.68,7.55
		v0.06h-0.06V7.55H46.68 M50.69,7.55l-0.03,0.06h-0.03l-0.03-0.06H50.69 M50.46,7.61l0.06,0.13L50.46,7.61 M44.31,7.64l-0.1,0.38
		h-0.03L44.31,7.64 M45.04,7.66l-0.01,0.02L45.04,7.66 M50.37,7.64l0.06,0.16l-0.1,0.06L50.3,7.64L50.37,7.64 M53.22,7.71l0.03,0.13
		L53.22,7.71 M45.02,7.77v0.1h-0.03L45.02,7.77 M17.06,7.8v0.06l0.06-0.06H17.06 M50.59,7.87v0.06l-0.13,0.1l0.03-0.19L50.59,7.87
		 M50.78,7.87v0.06h-0.06V7.87H50.78 M17.97,7.92l-0.01,0.02L17.97,7.92 M44.43,7.92l-0.01,0.02L44.43,7.92 M50.3,7.9
		c-0.01,0.13-0.04,0.22-0.16,0.29L50.3,7.9 M17,7.95l0.01,0.02L17,7.95 M21.09,7.93l0.03,0.06L21.09,7.93 M44.41,7.99l-0.03,0.03
		L44.41,7.99 M21.09,8.03L21,8.19L21.09,8.03 M17,8.11l0.01,0.02L17,8.11 M44.38,8.09v0.13h-0.03L44.38,8.09 M52.83,8.09l-0.06,0.1
		v-0.1H52.83 M44.15,8.22l-0.1,0.22L44.15,8.22 M46.56,8.23c0.02,0,0,0.02-0.01,0.01L46.56,8.23 M17.61,8.27l0.01,0.02L17.61,8.27
		 M21.03,8.35l-0.1-0.06L21.03,8.35 M50.14,8.28v0.1h-0.03L50.14,8.28 M16.8,8.44h0.13l-0.03-0.1L16.8,8.44 M17.57,8.35l-0.13,0.42
		h0.03L17.57,8.35 M50.4,8.35l-0.03,0.03L50.4,8.35 M52.77,8.35v0.06h-0.06V8.35H52.77 M44.28,8.38l-0.03,0.03L44.28,8.38
		 M50.74,8.4l-0.01,0.02L50.74,8.4 M17.92,8.44l-0.06,0.19h-0.03V8.44H17.92 M20.29,8.44L20.26,8.6h0.06L20.29,8.8l-0.16,0.03
		L20.29,8.44 M44.28,8.48l-0.06,0.1v-0.1H44.28 M50.14,8.48l0.03,0.1L50.14,8.48 M20.77,8.51v0.1h-0.03L20.77,8.51 M20.9,8.51
		l-0.03,0.1L20.9,8.51 M44.06,8.51l-0.06,0.32h-0.03L44.06,8.51 M45.92,8.54l0.03,0.03L45.92,8.54 M50.08,8.54L50.02,8.8V8.54H50.08
		 M50.3,8.54v0.13h-0.03L50.3,8.54 M52.64,8.73v0.1h-0.03L52.64,8.73 M44.15,8.92l-0.06-0.1L44.15,8.92 M17.22,9.24l0.22-0.38
		C17.29,8.94,17.27,9.09,17.22,9.24 M20.13,8.86v0.1H20.1L20.13,8.86 M50.4,8.86v0.1h-0.03L50.4,8.86 M20.61,8.89v0.1l-0.06-0.1
		H20.61 M49.98,8.89l-0.03,0.1L49.98,8.89 M43.93,8.92L43.9,9.12h-0.03L43.93,8.92 M45.76,8.92v0.13h0.1V8.92H45.76 M52.48,8.96v0.1
		h0.03L52.48,8.96 M16.61,8.99l0.03,0.03L16.61,8.99 M20.19,9.05l-0.22,0.58h-0.03C19.94,9.39,20.03,9.22,20.19,9.05 M49.92,9.05
		l0.1,0.06v0.03l-0.19,0.1L49.92,9.05 M20.77,9.08l-0.06,0.1v-0.1H20.77 M44.06,9.15L44.03,9.4h-0.03L44.06,9.15 M43.83,9.21
		l-0.19,0.64h-0.03L43.83,9.21 M16.67,9.28v0.06h0.06L16.67,9.28 M17.15,9.37l-0.06,0.42h0.03l0.1-0.42H17.15 M49.82,9.37v0.16
		h-0.03L49.82,9.37 M52.3,9.43l0.01,0.02L52.3,9.43 M50.05,9.44L49.98,9.6L50.05,9.44 M43.93,9.53l-0.19,0.77h-0.03L43.93,9.53
		 M49.73,9.56l-0.1,0.48L49.73,9.56 M19.71,9.63l-0.13,0.13V9.63H19.71 M20.18,9.65l-0.01,0.02L20.18,9.65 M44.44,9.63l0.03,0.13
		h-0.03V9.63 M50.02,9.63l-0.16,0.26L50.02,9.63 M19.91,9.69l-0.32,1.28h-0.03C19.41,10.67,19.73,9.97,19.91,9.69 M49.86,9.69
		l-0.03,0.19h-0.03L49.86,9.69 M50.18,9.76l-0.06,0.35h-0.03l0.03-0.35H50.18 M20.52,9.8c0.02,0,0,0.02-0.01,0.01L20.52,9.8
		 M16.29,9.82c-0.09,0.14-0.1,0.24,0,0.38l-0.03-0.16h0.1L16.29,9.82 M17.06,9.88l0.03,0.03L17.06,9.88 M20.36,10.04l-0.1-0.06
		L20.36,10.04 M19.55,10.01l-0.22,0.61H19.3C19.33,10.4,19.4,10.18,19.55,10.01 M43.58,10.01c0,0.6-0.32,1.15-0.45,1.73H43.1
		C43.17,11.21,43.32,10.49,43.58,10.01 M52.07,10.04v0.1h0.03L52.07,10.04 M49.86,10.11v0.1l-0.06-0.1H49.86 M49.66,10.2l-0.19,0.32
		C49.4,10.36,49.49,10.23,49.66,10.2 M52.39,10.2v0.06h-0.06V10.2H52.39 M16.06,10.3l-0.03,0.22l0.19-0.03l-0.1-0.19L16.06,10.3
		 M19.96,10.32l-0.01,0.02L19.96,10.32 M43.74,10.4l-0.42,1.35h-0.03l0.35-1.35H43.74 M44.25,10.4l-0.03,0.16h-0.03L44.25,10.4
		 M20.26,10.43l0.06,0.1L20.26,10.43 M49.6,10.46v0.13h-0.03L49.6,10.46 M16.1,10.62l-0.13,0.22C16.08,10.81,16.14,10.74,16.1,10.62
		 M19.3,10.68l-0.13,0.26L19.3,10.68 M49.47,10.85l-0.16,0.03l0.03-0.16L49.47,10.85 M49.7,10.72l-0.1,0.35h-0.03L49.7,10.72
		 M19.84,10.75v0.1h-0.03l-0.03-0.1H19.84 M45.37,10.88l0.1-0.06L45.37,10.88 M20.16,10.85l0.03,0.1L20.16,10.85 M16.16,10.91
		l0.03,0.03L16.16,10.91 M49.79,10.94v0.06h-0.06v-0.06H49.79 M52.23,10.94l-0.13,0.19L52.23,10.94 M15.84,10.97l-0.26,1.15h0.03
		c0.15-0.37,0.33-0.75,0.35-1.15H15.84 M49.5,11.04l-0.1-0.06L49.5,11.04 M19.43,11.01c0.12,0.13,0.04,0.27-0.1,0.35L19.43,11.01
		 M49.98,11.01v0.1h-0.03L49.98,11.01 M52.42,11.02c0.02,0,0,0.02-0.01,0.01L52.42,11.02 M19.11,11.07c0,0.59-0.38,1.05-0.51,1.6
		l-0.16-0.06L19.11,11.07 M49.34,11.07c0,0.1,0.01,0.17-0.1,0.19L49.34,11.07 M20.02,11.22l-0.01,0.02L20.02,11.22 M49.73,11.2
		l0.06,0.16v0.03l-0.16,0.13L49.73,11.2 M43.99,11.26l-0.06,0.1L43.99,11.26 M49.86,11.34c0.02,0,0,0.02-0.01,0.01L49.86,11.34
		 M19.62,11.42v0.1l-0.06-0.1H19.62 M49.18,11.42c0.09,0.13,0.08,0.29,0,0.42C49.09,11.7,49.12,11.56,49.18,11.42 M19.36,11.45
		l-0.13,0.32l-0.13-0.1L19.36,11.45 M19.91,11.55l-0.03,0.1L19.91,11.55 M19.49,11.68v0.1l-0.06-0.1H19.49 M16.42,11.74V12h0.06
		v-0.26H16.42 M19.61,11.8l-0.01,0.02L19.61,11.8 M49.31,11.77l0.03,0.16h-0.06L49.31,11.77 M49.73,11.77l0.06,0.13L49.73,11.77
		 M19.2,11.81c-0.01,0.27-0.11,0.56-0.32,0.74L19.2,11.81 M19.43,11.9l-0.13,0.22l0.06-0.22H19.43 M49.09,11.91
		c0.02,0,0,0.02-0.01,0.01L49.09,11.91 M19.75,11.97L19.71,12L19.75,11.97 M48.7,12.16l-0.03,0.16l-0.22-0.1v0.19h0.03l0.03-0.1
		l0.16,0.06c-0.14,0.34-0.99,0.09-1.19-0.1l0.03,0.16l-0.13-0.1l0.06,0.16l-0.1-0.06l-0.13,0.06c-0.12-0.3-0.62-0.14-0.9-0.22
		c-0.13,0.18-0.33,0.07-0.45-0.06l-0.06,0.22l-0.35-0.13c0.11-0.42,0.49-0.31,0.83-0.27C47.08,12.15,47.92,12.16,48.7,12.16
		 M45.05,12.06l-0.13,0.26l-0.22,0.03l0.03-0.26L45.05,12.06 M19.65,12.09c0.05,0.08,0.04,0.11-0.03,0.16L19.65,12.09 M44.22,12.09
		l0.19,0.06c-0.07,0.22-0.22,0.15-0.35,0.03l0.03,0.16l-0.26-0.19l0.42,0.06L44.22,12.09 M46.59,12.22l0.1-0.06L46.59,12.22
		 M48.26,12.21l0.01,0.02L48.26,12.21 M51.11,12.29l-0.13,0.35l-0.16-0.13l0.03,0.13l-0.16-0.19c-0.14,0.25-0.64,0.13-0.9,0.13
		l0.06-0.38L51.11,12.29 M15.62,12.24l0.01,0.02L15.62,12.24 M47.23,12.22l0.06,0.19h0.03L47.23,12.22 M49.05,12.25l-0.03,0.03
		L49.05,12.25 M49.38,12.25v0.1h-0.03L49.38,12.25 M19.26,12.31l-0.01,0.02L19.26,12.31 M47.84,12.32v0.03l0.13,0.03L47.84,12.32
		 M49.95,12.32l0.1,0.06L49.95,12.32 M50.14,12.32v0.16h0.03L50.14,12.32 M51.33,12.32l-0.19,0.35l0.13-0.35H51.33 M48.18,12.36
		l0.02,0.01L48.18,12.36 M48.29,12.35l0.03,0.03L48.29,12.35 M48.99,12.35l0.06,0.13l-0.16,0.03l0.03-0.16L48.99,12.35 M47.03,12.47
		l-0.01,0.02L47.03,12.47 M50.52,12.46l0.02,0.01L50.52,12.46 M19.14,12.48v0.13h-0.03L19.14,12.48 M44.85,12.5l-0.01,0.02
		L44.85,12.5 M19.52,12.54l-0.03,0.03L19.52,12.54 M18.85,12.67c-0.28,0.86-0.63,1.72-1.09,2.5h-0.03c0.15-0.62,0.48-1.23,0.76-1.79
		C18.61,13.14,18.65,12.86,18.85,12.67 M50.53,12.67v0.06h-0.06v-0.06H50.53 M50.65,12.69l-0.01,0.02L50.65,12.69 M48.51,12.73
		l-0.03,0.03L48.51,12.73 M19.43,12.77l-0.06,0.19h-0.03v-0.19H19.43 M50.37,12.86l0.13-0.03l-0.1,0.13l0.26-0.13h0.06
		c0.17,0.39-0.28,1.06-0.43,1.44c-0.55,1.32-1.32,2.53-1.87,3.84h-0.03c0.08-1.77,0.93-3.47,1.28-5.19l0.35,0.03
		C50.08,12.77,50.21,12.78,50.37,12.86 M18.39,12.82l-0.01,0.02L18.39,12.82 M51.1,12.83l-0.1,0.29l0.1,0.13l-0.13-0.03
		c-0.21,0.92-0.71,1.82-1.13,2.66c-0.09,0.19-0.22,0.77-0.41,0.83c0.25-0.92,0.71-1.82,1.09-2.69
		C50.69,13.66,50.83,13.11,51.1,12.83 M48.83,12.86v0.13h-0.1v-0.13H48.83 M49.25,12.86l-0.03,0.16h-0.03L49.25,12.86 M16.25,12.89
		l-0.06,0.06L16.25,12.89 M18.37,12.89c-0.07,0.52-0.31,1.06-0.52,1.54c-0.48,1.13-1.11,2.16-1.63,3.27h-0.03
		c0.31-1.07,0.97-2.1,1.43-3.11C17.86,14.07,18.03,13.35,18.37,12.89 M48.99,12.93v0.13h-0.03L48.99,12.93 M51.81,12.93l-0.06,0.1
		v-0.1H51.81 M44.76,12.96v0.35c-0.17,0.05-0.08,0.19-0.1,0.32c-0.02,0.19-0.12,0.67-0.32,0.7c0.07,0.36-0.16,0.79-0.29,1.12
		l-0.16-0.06l0.06,0.19l-0.13-0.06l0.1,0.29l-0.13-0.03v0.32l-0.13-0.06l0.03,0.32h-0.03v-0.13h-0.03l-0.8,1.95h-0.22l0.61-1.73
		h0.03l0.06,0.1v-0.35l0.1,0.06c0.04-0.47,0.26-0.88,0.44-1.31c0.16-0.39,0.26-0.82,0.41-1.22C44.37,13.41,44.36,12.96,44.76,12.96
		 M44.15,12.99c-0.06,0.69-0.43,1.46-0.67,2.11c-0.36,1-0.66,2.1-1.15,3.04c-0.06-0.14,0.01-0.27,0.03-0.42
		c0.06-0.33,0.14-0.63,0.23-0.96c0.25-0.88,0.43-1.77,0.65-2.66c0.07-0.28,0.11-0.82,0.3-1.04C43.66,12.96,44.01,12.99,44.15,12.99
		 M51.14,12.99v0.1H51.1L51.14,12.99 M51.38,13.01l-0.01,0.02L51.38,13.01 M19.29,13.04l-0.01,0.02L19.29,13.04 M48.67,13.5h-0.03
		l0.06-0.45C48.87,13.17,48.75,13.36,48.67,13.5 M15.29,13.12l-0.06,0.22c0.11-0.06,0.13-0.11,0.13-0.22H15.29 M18.91,13.12v0.19
		l-0.13-0.03L18.91,13.12 M42.71,13.15l-0.7,2.79h-0.03c-0.08-0.43,0.14-0.67,0.24-1.06c0.05-0.19,0.04-0.41,0.09-0.61
		c0.09-0.37,0.25-0.74,0.28-1.12L42.71,13.15 M42.87,13.18l-0.1,0.35h-0.03L42.87,13.18 M49.22,13.18l-0.16,0.22l-0.03-0.13
		L49.22,13.18 M48.93,13.23c0.02,0,0,0.02-0.01,0.01L48.93,13.23 M16.16,13.28l-0.03,0.03L16.16,13.28 M19.27,13.28v0.06H19.2v-0.06
		H19.27 M44.73,13.34l-0.03,0.03L44.73,13.34 M18.79,13.44v0.06h-0.06v-0.06H18.79 M15.23,13.47l-0.13,0.32
		C15.24,13.72,15.29,13.61,15.23,13.47 M18.95,13.5l-0.06,0.1v-0.1H18.95 M48.77,13.5v0.06H48.7V13.5H48.77 M19.07,13.54h0.03
		l0.03,0.03v0.06C19.07,13.62,19.04,13.6,19.07,13.54 M51.07,13.55c0.02,0,0,0.02-0.01,0.01L51.07,13.55 M51.3,13.54l-0.1,0.1
		L51.3,13.54 M42.74,13.57l-0.13,0.7h-0.03L42.74,13.57 M49.05,13.6l-0.03,0.13h-0.03L49.05,13.6 M18.88,13.66l-0.06,0.06v-0.06
		H18.88 M48.64,13.66v0.06h-0.1v-0.06H48.64 M48.8,13.7c0,0.16-0.01,0.3-0.16,0.38L48.8,13.7 M18.53,13.76l0.06,0.16h-0.03
		L18.53,13.76 M51.25,13.85l-0.01,0.02L51.25,13.85 M48.54,13.86l-0.1,0.35h-0.03l0.06-0.35H48.54 M51.07,13.89l0.03,0.13h-0.13
		l0.03-0.13H51.07 M50.91,13.98l-0.06,0.06v-0.06H50.91 M18.91,14.02l-0.1,0.16l0.03-0.16H18.91 M18.49,14.07l-0.01,0.02
		L18.49,14.07 M44.38,14.14v0.13h0.03L44.38,14.14 M51.01,14.14l-0.03,0.03L51.01,14.14 M18.43,14.24l-0.03,0.03L18.43,14.24
		 M14.97,14.34l0.13,0.13v-0.13H14.97 M48.86,14.34l-0.13,0.29l0.06-0.29H48.86 M42.52,14.41c0.02,0,0,0.02-0.01,0.01L42.52,14.41
		 M48.51,14.4l-0.19,0.13L48.51,14.4 M18.3,14.5l-0.1,0.13L18.3,14.5 M42.55,14.5l-0.03,0.13h-0.03V14.5H42.55 M51.04,14.59
		l-0.1-0.1L51.04,14.59 M44.07,14.58l0.01,0.02L44.07,14.58 M18.66,14.59l-0.03,0.03L18.66,14.59 M18.46,14.62v0.1H18.4v-0.1H18.46
		 M14.94,14.66l0.03,0.13h0.03v-0.13H14.94 M48.35,14.66l-0.03,0.42h-0.03l-0.1-0.35L48.35,14.66 M50.71,14.71l-0.01,0.02
		L50.71,14.71 M18.21,14.75l-0.06,0.1v-0.1H18.21 M14.91,14.88l-0.16,0.22C14.87,15.07,14.98,15.01,14.91,14.88 M48.22,14.91v0.1
		h-0.03L48.22,14.91 M18.08,14.94l0.03,0.1h-0.1L18.08,14.94 M42.42,14.98l-0.06,0.45h-0.03L42.42,14.98 M48.25,15.14v0.16
		l-0.1-0.03v0.38C47.96,15.52,48.04,15.22,48.25,15.14 M17.95,15.17l-0.03,0.35h-0.03L17.95,15.17 M44.11,15.18l0.02,0.01
		L44.11,15.18 M17.73,15.2l-0.03,0.03L17.73,15.2 M18.4,15.2v0.1h-0.06v-0.1H18.4 M26.09,15.38c-0.3,0.07-0.49,0.33-0.71,0.52
		c-0.08,0.07-0.2,0.15-0.22,0.26c-0.05,0.33,0.57,0.72,0.86,0.65C26.68,16.66,26.92,15.19,26.09,15.38 M17.63,15.43l-0.38,1.09
		l-0.26,0.03c0.07-0.17,0.14-0.33,0.32-0.38C17.33,15.9,17.45,15.62,17.63,15.43 M14.78,15.46l0.03,0.03L14.78,15.46 M18.27,15.46
		l-0.1,0.13l0.03-0.13H18.27 M42.26,15.52l-0.06,0.42h-0.03L42.26,15.52 M48.31,15.61l-0.01,0.02L48.31,15.61 M17.81,15.7
		l-0.01,0.02L17.81,15.7 M48.16,15.71L48,15.91v-0.19H48.16 M48.51,15.75l-0.03,0.19h-0.03v-0.19H48.51 M14.72,15.78v0.13l0.06-0.13
		H14.72 M17.73,15.81v0.1H17.7l-0.03-0.1H17.73 M18.14,15.81l-0.03,0.13h-0.03v-0.13H18.14 M14.81,15.87v0.06l0.06-0.06H14.81
		 M17.63,15.94l0.03,0.1L17.63,15.94 M50.14,15.97l-0.06,0.1v-0.1L50.14,15.97 M42.17,16l-0.1,0.19L42.1,16H42.17 M14.65,16.03
		c-0.27,0.45-0.25,0.92-0.38,1.41h0.03l0.42-1.41H14.65 M48.38,16.03l-0.06,0.16L48.38,16.03 M41.88,16.07l-0.45,2.18h-0.1
		l0.19-0.99l0.1-0.22L41.88,16.07 M48.03,16.07c-0.01,0.15-0.01,0.3-0.16,0.35l-0.13,0.29C47.78,16.5,47.8,16.14,48.03,16.07
		 M48.19,16.07l-0.06,0.19L48.19,16.07 M14.78,16.16l-0.06,0.19h0.03L14.78,16.16 M17.5,16.29l-0.06,0.06v-0.06H17.5 M15.16,16.34
		l-0.01,0.02L15.16,16.34 M50.18,16.42l-0.06,0.1L50.18,16.42 M14.69,16.45l-0.03,0.06h0.06L14.69,16.45 M17.41,16.48l-0.1,0.13
		L17.41,16.48 M43.64,16.48l-0.06,0.06v-0.06H43.64 M15.17,16.51l-0.1,0.1L15.17,16.51 M42.04,16.51l-0.1,0.29h-0.03L42.04,16.51
		 M17.12,16.58c-0.19,0.8-0.81,1.56-1.22,2.24h-0.03c0.03-0.14,0.06-0.23,0.19-0.29c-0.06-0.23,0.16-0.4,0.29-0.58
		c-0.2-0.04,0.04-0.17,0.13-0.19v-0.03l-0.13,0.03c0.11-0.34,0.58-0.6,0.54-0.99l0.1,0.03l-0.03-0.13L17.12,16.58 M17.73,16.74v0.06
		h-0.06v-0.06H17.73 M47.9,16.74l-0.1,0.13l0.03-0.13H47.9 M49.38,16.74c0,0.32-0.14,0.42-0.27,0.68c-0.15,0.29-0.15,0.58-0.46,0.77
		C48.76,17.75,49.02,17.03,49.38,16.74 M47.77,16.83l-0.1,0.22l0.1-0.03l-0.03,0.16h-0.1l0.06-0.35L47.77,16.83 M17.25,16.87
		l-0.1,0.1L17.25,16.87 M17.11,16.98L17.1,17L17.11,16.98 M41.94,16.96l-0.06,0.16h-0.03l0.03-0.16H41.94 M47.97,17.03l-0.13,0.13
		L47.97,17.03 M17.09,17.09l-0.13,0.19L17.09,17.09 M41.88,17.19l-0.03,0.03L41.88,17.19 M47.84,17.22l-0.03,0.03L47.84,17.22
		 M47.68,17.35l-0.16,0.32l0.03-0.35L47.68,17.35 M41.78,17.38l-0.16,0.86h-0.03L41.78,17.38 M14.17,17.6l0.03,0.03l0.06-0.1
		L14.17,17.6 M49.76,17.57l-0.06,0.26h-0.03L49.76,17.57 M16.19,17.73l-0.03,0.03L16.19,17.73 M16.03,17.79L16,17.83L16.03,17.79
		 M47.58,17.83l-0.03,0.16h-0.06l-0.06-0.13L47.58,17.83 M16.64,17.86l-0.03,0.03L16.64,17.86 M47.97,17.86l-0.1,0.1L47.97,17.86
		 M14.14,17.89l-0.03,0.13h0.03V17.89 M16,17.92l-0.03,0.32l-0.22,0.1L16,17.92 M49.05,17.95v0.06h-0.06v-0.06H49.05 M16.51,18.08
		l-0.1,0.13L16.51,18.08 M16.95,18.17l-0.01,0.02L16.95,18.17 M14.18,18.2l0.01,0.02L14.18,18.2 M41.34,18.28l0.06,0.16h-0.03
		L41.34,18.28 M41.59,18.28l-0.1,0.51h-0.03L41.59,18.28 M42.55,18.31l-0.03,0.03L42.55,18.31 M14.11,18.37l0.03,0.03L14.11,18.37
		 M16.74,18.4v0.06h-0.06V18.4H16.74 M14.24,18.44l0.03,0.03L14.24,18.44 M16.31,18.49l-0.01,0.02L16.31,18.49 M41.37,18.47
		c-0.03,0.64-0.25,1.29-0.35,1.92c-0.03,0.19-0.03,0.58-0.19,0.7l-0.06,0.32h-0.03c-0.03-0.13,0-0.19,0.1-0.29
		c-0.05-0.08-0.05-0.11,0.03-0.16v-0.03l-0.1-0.03l0.16-0.26l-0.1-0.1h0.1v-0.03c-0.1-0.23,0.05-0.57,0.11-0.8
		c0.11-0.41,0.12-0.79,0.3-1.19l-0.1-0.03L41.37,18.47 M16.77,18.63l0.03,0.1L16.77,18.63 M14.17,18.72l-0.03,0.22h0.03V18.72
		 M15.52,18.72l-0.16,0.45h-0.03L15.52,18.72 M16.19,18.72L16,18.88L16.19,18.72 M15.84,18.92l-0.03,0.03L15.84,18.92 M33.81,22.41
		h-0.03c0.15-0.57,0.37-1.35,0.11-1.92c-0.09-0.19-0.43-0.56-0.68-0.46c-0.11,0.04-0.15,0.23-0.18,0.33
		c-0.1,0.34-0.16,0.68-0.24,1.02c-0.26,1.13-0.73,2.44-0.54,3.62c0.06,0.37,0.31,1.13,0.79,1.12c0.74,0,0.91-1.22,1.19-1.7
		c0.63-1.11,1.34-2.31,2.24-3.21c0.11-0.11,0.13-0.27,0.24-0.36c0.22-0.2,0.55-0.33,0.79-0.51c0.33-0.24,0.64-0.5,0.99-0.71
		c0.12-0.07,0.3-0.2,0.45-0.19c0.13,0.01,0.25,0.11,0.35,0.17c-0.35-0.79-1.34-0.73-2.02-0.49c-1.06,0.37-1.78,1.21-2.5,2.03
		C34.43,21.54,34.04,21.95,33.81,22.41 M41.45,19.07l-0.01,0.02L41.45,19.07 M13.92,19.14v0.13l0.1-0.13H13.92 M37.81,19.14
		c-0.12,0.19-0.42,0.24-0.61,0.35c-0.33,0.19-0.64,0.47-0.93,0.72c-0.9,0.79-1.64,1.74-2.34,2.71c0.01-0.35,0.48-0.87,0.69-1.15
		C35.38,20.71,36.48,19.4,37.81,19.14 M48.77,19.2l-0.1,0.1l0.03-0.1H48.77 M15.55,19.27l-0.03,0.16h-0.03L15.55,19.27 M41.4,19.3
		l-0.1,0.48h-0.03L41.4,19.3 M48.88,19.32l-0.01,0.02L48.88,19.32 M38.26,19.36L38,19.52L38.26,19.36 M5.97,22.89
		c0.04,0.3,0.14,0.62,0.27,0.9c0.1,0.22,0.21,0.43,0.38,0.61c1.21,1.3,3.01-0.25,4-1.05c0.66-0.53,1.36-1.09,1.57-1.96l-0.64,0.26
		l0.16-0.29l0.03,0.1l0.26-0.22l-0.26,0.06l0.29-0.26v0.13h0.03L12.22,21v-0.03l-0.1-0.03v-0.06c0.19-0.07,0.21-0.24,0.26-0.42
		l-0.16,0.03l0.1-0.35c-0.23,0.11-0.52,0.39-0.61,0.64l0.32-0.13c-0.31,0.29-0.8,0.52-0.96,0.93c-0.33-0.05-0.6,0.44-0.86,0.61
		c-0.66,0.43-1.28,0.97-1.99,1.32c-0.35,0.17-0.8,0.29-1.18,0.17c-0.2-0.07-0.16-0.29-0.16-0.46c0-0.38,0.1-0.82,0.07-1.18
		c-0.01-0.14-0.16-0.22-0.26-0.31c-0.23-0.19-0.42-0.41-0.7-0.53L6,21.32c-0.45,0.19-0.86,0.66-1.22,0.99
		c-0.72,0.64-1.44,1.29-2.24,1.83c-0.3,0.2-0.61,0.38-0.93,0.54c-0.1,0.05-0.26,0.16-0.37,0.1c-0.19-0.11,0.07-0.85,0.12-1.02
		c0.3-1.05,0.78-2.04,1.03-3.11c0.1-0.42,0.22-0.77-0.16-1.06c-0.08-0.06-0.18-0.17-0.29-0.16c-0.13,0.01-0.31,0.22-0.37,0.32
		c-0.2,0.38-0.28,0.87-0.42,1.28c-0.37,1.11-0.89,2.24-0.69,3.43C0.54,25,0.78,25.6,1.33,25.82c0.55,0.22,1.11-0.13,1.57-0.41
		C4.04,24.72,4.82,23.54,5.97,22.89 M48.4,19.45l-0.01,0.02L48.4,19.45 M16.09,19.46l-0.16,0.1L16.09,19.46 M37.94,19.49
		c-0.03,0.11-0.07,0.15-0.19,0.13L37.94,19.49 M13.85,19.59l0.1,0.1L13.85,19.59 M37.68,19.59c-0.09,0.22-0.43,0.39-0.64,0.48
		C37.15,19.87,37.47,19.65,37.68,19.59 M27.5,24.68c0.06-0.19,0.26-0.25,0.42-0.35c0.29-0.18,0.63-0.4,0.83-0.67l-0.1-0.06
		l0.19,0.03l-0.06-0.16l0.29,0.06v-0.06l-0.13-0.03V23.4l0.1-0.1c0.12,0.17,0.23,0.09,0.16-0.1l0.61-0.45v0.03l-0.1,0.03
		c0.12,0.22,0.27,0.07,0.26-0.13h0.16v-0.03l-0.1-0.03v-0.1l0.26,0.03l-0.1-0.13l0.29-0.13l0.48-0.42l-0.74,0.35
		c0.2-0.29,0.49-0.47,0.83-0.54l0.06-0.26c-0.72,0.26-1.37,0.82-2.02,1.21c-0.31,0.19-0.52,0.48-0.9,0.32v-0.03
		c1.26-0.36,2.22-1.48,3.43-1.99l-0.26,0.29v0.03l0.06,0.06l-0.03,0.03c-0.11-0.07-0.15-0.06-0.26,0l0.06,0.13
		c0.37-0.09,0.71-0.46,0.93-0.77l-0.19,0.06l0.19-0.16v-0.03c-0.32,0.09-0.63,0.29-0.93,0.44c-0.92,0.46-1.77,1.03-2.63,1.6
		c-0.35,0.23-1.01,0.54-1.22,0.91l0.96-0.48c-0.12,0.24-0.63,0.51-0.86,0.61c-0.1,0.04-0.32,0.12-0.29,0
		c-0.15,0.01-0.35-0.01-0.32,0.19c-0.76,0.33-1.45,0.75-2.27,0.92c-0.19,0.04-0.65,0.17-0.81,0.02c-0.26-0.25,0.02-0.8,0.08-1.07
		c0.18-0.84,0.44-1.63,0.82-2.4c0.15-0.31,0.25-0.66,0.62-0.74c-0.02-0.39-0.41-0.96-0.86-0.88c-0.18,0.03-0.36,0.27-0.47,0.4
		c-0.43,0.52-0.62,1.22-0.81,1.86c-0.34,1.08-0.87,2.28,0.08,3.22c0.15,0.14,0.31,0.26,0.5,0.35c0.23,0.11,0.49,0.17,0.74,0.2
		c0.32,0.04,0.67,0.01,0.99-0.05c0.53-0.1,1.05-0.3,1.51-0.58C27.17,24.99,27.25,24.75,27.5,24.68 M15.23,19.75l-0.03,0.03
		L15.23,19.75 M15.71,19.84l0.03,0.1l-0.1-0.06L15.71,19.84 M48.48,19.88v0.16h-0.03L48.48,19.88 M13.87,19.99l-0.01,0.02
		L13.87,19.99 M41.24,19.97l-0.06,0.51h-0.03L41.24,19.97 M15.23,20v0.06h-0.06V20H15.23 M13.85,20.07v0.1h-0.03L13.85,20.07
		 M17.31,20.1l-0.93,0.83l-1.22,1.25C15.55,21.28,16.46,20.55,17.31,20.1 M36.98,20.13l-0.22,0.13L36.98,20.13 M17.44,20.34
		c0.02,0,0,0.02-0.01,0.01L17.44,20.34 M17.25,20.42c-0.08,0.16-0.21,0.25-0.38,0.29v-0.03L17.25,20.42 M36.63,20.45
		c-0.02,0.15-0.1,0.21-0.22,0.29l0.16-0.29H36.63 M12.19,20.55v0.06h-0.1v-0.06H12.19 M15.04,20.61l0.03,0.06h-0.06L15.04,20.61
		 M32.44,20.73l0.01,0.02L32.44,20.73 M15.03,20.89l-0.01,0.02L15.03,20.89 M31.79,20.87l-0.13,0.1L31.79,20.87 M36.18,20.9v0.06
		h-0.06V20.9H36.18 M14.94,21.13c0.04,0.42-0.19,0.95-0.32,1.35h-0.03C14.59,22.07,14.64,21.43,14.94,21.13 M58.76,21.16l-0.32,0.32
		C58.5,21.32,58.6,21.22,58.76,21.16 M15.12,21.21l-0.01,0.02L15.12,21.21 M16.35,21.22l-0.19,0.13L16.35,21.22 M16.82,21.24
		l-0.01,0.02L16.82,21.24 M31.6,21.22l-0.03,0.03L31.6,21.22 M49.47,21.36c0.02,0,0,0.02-0.01,0.01L49.47,21.36 M15.17,21.38v0.06
		h-0.1v-0.06H15.17 M16.16,21.38l-0.13,0.16l0.06-0.16H16.16 M31.34,21.38v0.03h-0.1L31.34,21.38 M49.79,21.45v0.1h-0.06v-0.1H49.79
		 M11.55,21.51l-0.13,0.1L11.55,21.51 M58.25,21.54l0.03,0.03l-0.1,0.06L58.25,21.54 M16,21.57l-0.1,0.13L16,21.57 M11.39,21.61v0.1
		h-0.1v-0.1H11.39 M16.37,21.69l-0.01,0.02L16.37,21.69 M58.12,21.67l-0.13,0.13L58.12,21.67 M11.48,21.7l0.03,0.13L11.48,21.7
		 M14.3,21.73h0.03l-0.06,0.13L14.3,21.73 M15.84,21.77l-0.06,0.1v-0.1H15.84 M11.1,21.8h0.03l0.03,0.13l0.22-0.13l0.03,0.19
		l-0.29,0.03L11.1,21.8 M30.99,21.86l0.13-0.03L30.99,21.86 M17.28,21.83v0.1l0.1-0.03v-0.03L17.28,21.83 M57.93,21.83
		c-0.05,0.17-0.16,0.24-0.32,0.29C57.66,21.96,57.78,21.89,57.93,21.83 M15.71,21.89c-0.14,0.21-0.31,0.52-0.54,0.64
		C15.3,22.28,15.45,22.03,15.71,21.89 M11.13,21.93l0.03,0.03L11.13,21.93 M14.14,21.96l-0.16,1.12l-0.16,0.13l0.26-0.1l-0.42,0.64
		h-0.03l0.17-0.7l-0.01-0.35h0.03v0.13l0.13-0.16l-0.13-0.03L14.14,21.96 M17.11,22.03l0.02,0.01L17.11,22.03 M49.05,22.02
		l-0.13,0.16L49.05,22.02 M11.07,22.05l-0.19,0.16L11.07,22.05 M14.33,22.05l-0.06,0.13L14.33,22.05 M5.78,22.12v0.22
		c-0.21,0.04-0.52,0.19-0.51,0.42l-0.19-0.03c0.08-0.12,0.14-0.22,0.29-0.22l0.13-0.29L5.78,22.12 M5.88,22.12l0.06,0.13L5.88,22.12
		 M16.96,22.12l0.1,0.1L16.96,22.12 M57.48,22.15c-0.29,0.41-0.83,0.81-1.28,1.02C56.48,22.77,57.05,22.4,57.48,22.15 M5.43,22.18
		l-0.19,0.22L5.43,22.18 M48.83,22.21c-0.03,0.14-0.08,0.22-0.22,0.22l0.16-0.22H48.83 M10.8,22.27l-0.01,0.02L10.8,22.27
		 M16.96,22.28l-0.06,0.16C16.97,22.39,17,22.36,16.96,22.28 M57.83,22.31l0.03,0.13h0.03L57.83,22.31 M30.03,22.34L30,22.37
		L30.03,22.34 M30.46,22.36l0.01,0.02L30.46,22.36 M48.32,22.34l-0.1,0.16l-0.03-0.03l0.06-0.13L48.32,22.34 M10.55,22.37
		c-0.07,0.15-0.16,0.22-0.32,0.26L10.2,22.5L10.55,22.37 M29.96,22.37v0.03c-0.83,0.56-1.67,1.22-2.59,1.6v-0.03
		C28.19,23.42,29.05,22.76,29.96,22.37 M5.2,22.41l-0.22,0.1c-0.11,0.3-0.2,0.54-0.51,0.67l0.1-0.16l-0.16,0.1
		C4.45,22.71,4.82,22.49,5.2,22.41 M19,22.43l-0.01,0.02L19,22.43 M57.77,22.44l-0.13,0.16L57.77,22.44 M48.61,22.47l-0.13,0.16
		l0.03-0.16H48.61 M48.13,22.53l0.03,0.03l-0.1,0.06L48.13,22.53 M14.1,22.65l-0.01,0.02L14.1,22.65 M16.74,22.66l-0.13,0.16h-0.03
		l0.06-0.19L16.74,22.66 M19.04,22.63c-0.2,0.97-0.79,1.98-1.38,2.75l0.1-0.03l-0.48,0.51c0.48-1.04,1.53-2.03,1.63-3.2L19.04,22.63
		 M46.72,22.63l-0.1,0.54C46.46,23.01,46.59,22.78,46.72,22.63 M48.37,22.65l-0.01,0.02L48.37,22.65 M10.29,22.72l-0.01,0.02
		L10.29,22.72 M14.04,22.74c0.02,0,0,0.02-0.01,0.01L14.04,22.74 M14.27,22.76l-0.03,0.03L14.27,22.76 M47.9,22.79l-0.19,0.19
		L47.9,22.79 M57.09,22.79c-0.02,0.11-0.05,0.14-0.16,0.16L57.09,22.79 M48.25,22.82l-0.13,0.16L48.25,22.82 M4.92,22.9l0.01,0.01
		C4.91,22.91,4.89,22.9,4.92,22.9 M14.56,22.98l-0.1,0.1L14.56,22.98 M29.58,22.98l0.13,0.06L29.58,22.98 M56.84,22.98v0.13h-0.03
		L56.84,22.98 M47.26,23.05l-0.03,0.03L47.26,23.05 M48.03,23.05l-0.16,0.22L48.03,23.05 M29.32,23.27l0.19-0.19L29.32,23.27
		 M16.41,23.11l-0.03,0.03L16.41,23.11 M47.58,23.14l-0.13,0.1L47.58,23.14 M4.37,23.27c-0.13,0.01-0.17,0.06-0.19,0.19
		C3.94,23.34,4.32,23.04,4.37,23.27 M56.74,23.21l-0.22,0.13L56.74,23.21 M16.32,23.21l-0.03,0.13h-0.03L16.32,23.21 M46.43,23.27
		c0.1,0.15,0.05,0.35-0.1,0.45c0.01-0.11,0.02-0.16,0.13-0.19L46.43,23.27 M56.07,23.27l-0.45,0.38
		C55.71,23.46,55.85,23.31,56.07,23.27 M18.36,23.32l-0.01,0.02L18.36,23.32 M47.39,23.34l-0.22,0.35h-0.03
		C47.15,23.51,47.24,23.42,47.39,23.34 M16.22,23.41c0.02,0,0,0.02-0.01,0.01L16.22,23.41 M47.71,23.4v0.1h-0.06v-0.1L47.71,23.4
		 M3.99,23.46l-0.42,0.35C3.64,23.63,3.79,23.51,3.99,23.46 M27.43,23.51c0.02,0,0,0.02-0.01,0.01L27.43,23.51 M27.21,23.53
		l0.1,0.13l0.03-0.13H27.21 M18.24,23.56l-0.03,0.03L18.24,23.56 M40.44,23.62v0.13h-0.03L40.44,23.62 M55.52,23.66l-0.13,0.13
		L55.52,23.66 M40.73,23.72v0.06h-0.06L40.73,23.72 M16.03,23.75l-0.06,0.1L16.03,23.75 M27.15,23.78
		c-0.11,0.15-0.23,0.24-0.42,0.26v-0.03L27.15,23.78 M46.33,23.78v0.29C46.21,23.99,46.25,23.88,46.33,23.78 M40.4,23.84l-0.01,0.02
		L40.4,23.84 M55.3,23.85v0.1h-0.06v-0.1H55.3 M40.69,23.88l-0.03,0.03L40.69,23.88 M3.38,23.94l-0.1,0.06L3.38,23.94 M18.02,23.98
		c-0.11,0.46-0.48,0.86-0.74,1.25h-0.03C17.42,24.81,17.73,24.32,18.02,23.98 M27.34,24.01l-0.1,0.06v-0.03L27.34,24.01
		 M40.69,24.01l-0.06,0.13L40.69,24.01 M40.5,24.1l-0.13,0.13L40.5,24.1 M15.84,24.14l-0.03,0.03L15.84,24.14 M27.05,24.2v0.03h-0.1
		L27.05,24.2 M46.2,24.2v0.1h-0.03L46.2,24.2 M26.89,24.23l-0.13,0.13L26.89,24.23 M15.77,24.3l-0.1,0.1L15.77,24.3 M40.41,24.33
		l-0.03,0.03L40.41,24.33 M46.14,24.49v0.1h-0.06v-0.1H46.14 M14.43,24.52l-0.03,0.03L14.43,24.52 M14.33,24.58v0.06h-0.06v-0.06
		H14.33 M15.61,24.71l-0.03,0.03L15.61,24.71 M14.2,24.78l-0.03,0.16h-0.03v-0.16H14.2 M40.62,24.89l-0.01,0.02L40.62,24.89
		 M40.37,25l-0.03,0.13h-0.03L40.37,25 M40.63,25.13v0.16H40.6l-0.03-0.16H40.63 M40.44,25.16l-0.03,0.19h-0.03L40.44,25.16
		 M17.09,25.38c-0.05,0.25-0.25,0.47-0.48,0.58L17.09,25.38 M40.6,25.42v0.26h-0.03L40.6,25.42 M14.11,25.46l0.01,0.01
		C14.1,25.48,14.08,25.46,14.11,25.46 M40.44,25.58l-0.1,0.1l0.03-0.1H40.44 M40.43,25.73l-0.01,0.02L40.43,25.73 M40.6,25.8
		l-0.03,0.38h-0.03L40.6,25.8 M40.44,25.83v0.13h-0.06v-0.13H40.44 M13.97,25.92l-0.01,0.02L13.97,25.92 M17.15,25.93v0.22h-0.06
		v-0.22H17.15 M13.98,26.03v0.1h-0.03L13.98,26.03 M13.92,26.28l-0.06,0.38h-0.03L13.92,26.28 M40.6,26.41v0.16h-0.03L40.6,26.41
		 M13.82,26.7v0.1h-0.03L13.82,26.7 M13.69,27.4l-0.03,0.03L13.69,27.4 M13.69,27.51l0.01,0.01C13.69,27.53,13.67,27.51,13.69,27.51
		 M13.66,27.66v0.06H13.6v-0.06H13.66z"/>
</g>
</svg>
